<?xml version="1.0" standalone="no"?>
<!DOCTYPE svg PUBLIC "-//W3C//DTD SVG 20010904//EN"
 "http://www.w3.org/TR/2001/REC-SVG-20010904/DTD/svg10.dtd">
<svg version="1.0" xmlns="http://www.w3.org/2000/svg"
 width="400.000000pt" height="400.000000pt" viewBox="0 0 400.000000 400.000000"
 preserveAspectRatio="xMidYMid meet">
<metadata>
Created by potrace 1.15, written by Peter Selinger 2001-2017
</metadata>
<g transform="translate(0.000000,400.000000) scale(0.100000,-0.100000)"
fill="#000000" stroke="none">
<path d="M560 3986 c0 -19 14 -27 59 -33 65 -9 99 -34 224 -163 157 -163 226
-250 199 -250 -11 0 -25 -7 -32 -15 -17 -21 1 -41 46 -50 74 -13 124 -63 298
-295 44 -58 91 -121 106 -140 14 -19 41 -56 58 -82 l32 -47 -31 -9 c-77 -19
-54 -72 31 -72 25 0 53 -6 62 -12 45 -36 161 -250 174 -322 6 -37 6 -38 -17
-31 -38 11 -40 11 -52 -8 -10 -16 -6 -24 32 -56 43 -37 44 -39 37 -81 -4 -24
-23 -79 -43 -122 l-36 -78 -24 16 c-45 29 -71 -6 -38 -50 20 -27 19 -53 -6
-93 -24 -38 -65 -63 -105 -63 -14 0 -53 -7 -87 -16 -57 -15 -62 -14 -86 4 -14
10 -30 35 -35 54 -8 33 -5 42 32 98 63 94 76 164 47 251 -51 150 -202 205
-353 128 -47 -24 -75 -47 -97 -77 -27 -39 -30 -52 -30 -115 0 -61 5 -82 33
-139 37 -76 67 -102 156 -133 51 -18 64 -28 79 -58 33 -65 2 -127 -65 -130
-30 -2 -35 3 -61 51 -48 88 -111 110 -221 77 -104 -32 -141 -15 -155 73 -9 61
-31 96 -74 122 -56 34 -133 19 -175 -35 -37 -47 4 -86 52 -50 53 40 106 1 126
-94 19 -89 59 -131 126 -131 27 0 73 9 102 20 69 26 88 25 117 -6 38 -41 35
-101 -8 -142 -38 -37 -54 -39 -99 -13 -53 32 -106 36 -153 12 -52 -27 -55 -27
-95 14 -47 48 -78 57 -126 35 -60 -27 -116 -91 -112 -126 2 -21 11 -31 31 -39
27 -9 32 -6 65 33 21 23 43 42 49 42 7 0 33 -15 57 -34 65 -49 86 -52 142 -16
41 25 51 28 67 17 10 -6 19 -16 20 -22 0 -5 -33 -37 -74 -70 -315 -254 -607
-632 -675 -876 -11 -39 -23 -60 -35 -64 -17 -6 -19 -18 -19 -156 0 -140 1
-150 18 -145 13 5 33 -12 76 -65 32 -39 95 -102 140 -140 l81 -69 143 0 c163
0 189 6 348 80 117 54 190 102 329 214 141 113 279 249 376 371 46 58 91 105
100 105 24 0 30 -23 14 -51 -34 -59 -37 -69 -31 -102 3 -18 22 -52 42 -75 l35
-42 -47 -50 c-43 -46 -46 -53 -36 -75 9 -18 19 -25 41 -25 22 0 40 12 80 56
45 49 51 61 51 98 0 34 -6 48 -31 72 -49 46 -52 58 -28 104 27 51 22 120 -10
154 -11 12 -21 26 -21 31 0 17 63 106 82 116 29 16 66 3 82 -30 14 -26 13 -34
-9 -97 -14 -38 -25 -82 -25 -97 0 -68 52 -115 151 -136 84 -18 110 -56 79
-116 -21 -41 -18 -61 12 -71 15 -4 29 2 51 24 26 26 31 40 35 91 4 60 4 62
-34 100 -32 31 -49 40 -91 46 -63 8 -103 36 -103 72 0 13 10 58 22 99 28 98
17 141 -48 187 -51 35 -59 72 -23 108 42 42 131 1 143 -65 8 -42 58 -120 91
-142 36 -23 151 -64 182 -64 93 0 177 68 211 170 28 82 28 133 -2 196 -38 82
-126 134 -225 134 -60 -1 -108 -19 -175 -65 -41 -28 -61 -36 -80 -31 -57 14
-68 60 -43 176 17 78 29 94 98 136 59 35 63 36 126 30 70 -7 70 -7 49 44 -5
11 8 21 51 38 97 37 149 44 227 32 87 -13 111 -28 126 -77 29 -91 67 -111 72
-39 l3 44 105 -70 c209 -141 370 -260 400 -296 16 -20 30 -48 30 -62 0 -40 32
-95 55 -95 16 0 21 8 23 42 l3 42 77 -64 c42 -35 140 -116 217 -180 176 -147
283 -251 301 -292 8 -18 14 -48 14 -67 0 -19 7 -42 16 -51 15 -15 18 -15 35 1
16 14 19 31 19 96 l0 78 -130 132 c-117 119 -128 132 -112 145 16 12 16 14 -2
28 -11 8 -28 15 -38 15 -32 0 -80 30 -172 109 -146 125 -338 273 -449 346 -52
35 -56 40 -38 47 23 8 28 36 9 42 -7 2 -42 10 -77 17 -50 10 -84 26 -160 76
-133 88 -249 145 -310 151 -47 4 -50 6 -53 35 -2 17 -8 32 -13 34 -6 2 -34
-15 -63 -36 -29 -22 -76 -47 -105 -55 -29 -8 -105 -40 -170 -71 -64 -30 -120
-55 -122 -55 -3 0 -3 11 1 24 9 36 -13 41 -51 11 -19 -14 -35 -21 -35 -15 0
17 -80 99 -129 133 l-44 30 46 14 c35 10 47 18 47 33 0 15 -7 20 -26 20 -32 0
-30 12 16 113 25 56 39 73 75 95 24 15 43 31 42 36 -3 8 -33 29 -44 31 -1 1 4
39 13 85 16 95 8 169 -27 254 -15 36 -19 60 -15 95 8 60 -3 79 -38 63 -29 -13
-23 -19 -176 208 -46 69 -103 151 -127 184 -24 32 -43 69 -43 83 0 13 -7 37
-15 52 -11 22 -20 27 -38 24 -17 -3 -28 2 -40 20 -24 37 -240 292 -302 357
-75 78 -125 148 -125 173 0 41 -21 97 -36 97 -8 0 -20 -11 -26 -25 -6 -14 -14
-25 -17 -25 -3 0 -33 25 -66 55 l-60 55 -97 0 c-79 0 -98 -3 -98 -14z m702
-1627 c44 -32 61 -73 56 -140 -5 -69 -28 -100 -94 -125 -83 -32 -148 -4 -190
83 -24 48 -26 58 -16 91 13 44 66 99 108 112 40 13 101 3 136 -21z m1067
-1087 c14 -10 36 -34 49 -52 60 -89 -16 -230 -123 -230 -48 0 -120 41 -140 80
-20 39 -19 108 3 150 38 72 147 100 211 52z"/>
<path d="M1148 2273 c-20 -24 -17 -43 8 -60 19 -12 24 -12 38 2 22 22 20 52
-3 65 -25 13 -25 13 -43 -7z"/>
<path d="M2230 1176 c-6 -8 -10 -25 -8 -38 2 -18 9 -23 32 -23 40 0 56 27 32
54 -22 25 -39 26 -56 7z"/>
</g>
</svg>
