<?xml version="1.0" encoding="UTF-8"?>
<!-- Created with Inkscape (http://www.inkscape.org/) -->
<svg width="190.94mm" height="260.15mm" version="1.1" viewBox="0 0 190.94 260.15" xmlns="http://www.w3.org/2000/svg" xmlns:cc="http://creativecommons.org/ns#" xmlns:dc="http://purl.org/dc/elements/1.1/" xmlns:rdf="http://www.w3.org/1999/02/22-rdf-syntax-ns#">
 <metadata>
  <rdf:RDF>
   <cc:Work rdf:about="">
    <dc:format>image/svg+xml</dc:format>
    <dc:type rdf:resource="http://purl.org/dc/dcmitype/StillImage"/>
    <dc:title/>
   </cc:Work>
  </rdf:RDF>
 </metadata>
 <g transform="translate(-16.312 -35.817)">
  <g transform="matrix(.034841 -.005533 -.005533 -.034841 19.23 179.36)">
   <path d="m560 3986c0-19 14-27 59-33 65-9 99-34 224-163 157-163 226-250 199-250-11 0-25-7-32-15-17-21 1-41 46-50 74-13 124-63 298-295 44-58 91-121 106-140 14-19 41-56 58-82l32-47-31-9c-77-19-54-72 31-72 25 0 53-6 62-12 45-36 161-250 174-322 6-37 6-38-17-31-38 11-40 11-52-8-10-16-6-24 32-56 43-37 44-39 37-81-4-24-23-79-43-122l-36-78-24 16c-45 29-71-6-38-50 20-27 19-53-6-93-24-38-65-63-105-63-14 0-53-7-87-16-57-15-62-14-86 4-14 10-30 35-35 54-8 33-5 42 32 98 63 94 76 164 47 251-51 150-202 205-353 128-47-24-75-47-97-77-27-39-30-52-30-115 0-61 5-82 33-139 37-76 67-102 156-133 51-18 64-28 79-58 33-65 2-127-65-130-30-2-35 3-61 51-48 88-111 110-221 77-104-32-141-15-155 73-9 61-31 96-74 122-56 34-133 19-175-35-37-47 4-86 52-50 53 40 106 1 126-94 19-89 59-131 126-131 27 0 73 9 102 20 69 26 88 25 117-6 38-41 35-101-8-142-38-37-54-39-99-13-53 32-106 36-153 12-52-27-55-27-95 14-47 48-78 57-126 35-60-27-116-91-112-126 2-21 11-31 31-39 27-9 32-6 65 33 21 23 43 42 49 42 7 0 33-15 57-34 65-49 86-52 142-16 41 25 51 28 67 17 10-6 19-16 20-22 0-5-33-37-74-70-315-254-607-632-675-876-11-39-23-60-35-64-17-6-19-18-19-156 0-140 1-150 18-145 13 5 33-12 76-65 32-39 95-102 140-140l81-69h143c163 0 189 6 348 80 117 54 190 102 329 214 141 113 279 249 376 371 46 58 91 105 100 105 24 0 30-23 14-51-34-59-37-69-31-102 3-18 22-52 42-75l35-42-47-50c-43-46-46-53-36-75 9-18 19-25 41-25s40 12 80 56c45 49 51 61 51 98 0 34-6 48-31 72-49 46-52 58-28 104 27 51 22 120-10 154-11 12-21 26-21 31 0 17 63 106 82 116 29 16 66 3 82-30 14-26 13-34-9-97-14-38-25-82-25-97 0-68 52-115 151-136 84-18 110-56 79-116-21-41-18-61 12-71 15-4 29 2 51 24 26 26 31 40 35 91 4 60 4 62-34 100-32 31-49 40-91 46-63 8-103 36-103 72 0 13 10 58 22 99 28 98 17 141-48 187-51 35-59 72-23 108 42 42 131 1 143-65 8-42 58-120 91-142 36-23 151-64 182-64 93 0 177 68 211 170 28 82 28 133-2 196-38 82-126 134-225 134-60-1-108-19-175-65-41-28-61-36-80-31-57 14-68 60-43 176 17 78 29 94 98 136 59 35 63 36 126 30 70-7 70-7 49 44-5 11 8 21 51 38 97 37 149 44 227 32 87-13 111-28 126-77 29-91 67-111 72-39l3 44 105-70c209-141 370-260 400-296 16-20 30-48 30-62 0-40 32-95 55-95 16 0 21 8 23 42l3 42 77-64c42-35 140-116 217-180 176-147 283-251 301-292 8-18 14-48 14-67s7-42 16-51c15-15 18-15 35 1 16 14 19 31 19 96v78l-130 132c-117 119-128 132-112 145 16 12 16 14-2 28-11 8-28 15-38 15-32 0-80 30-172 109-146 125-338 273-449 346-52 35-56 40-38 47 23 8 28 36 9 42-7 2-42 10-77 17-50 10-84 26-160 76-133 88-249 145-310 151-47 4-50 6-53 35-2 17-8 32-13 34-6 2-34-15-63-36-29-22-76-47-105-55s-105-40-170-71c-64-30-120-55-122-55-3 0-3 11 1 24 9 36-13 41-51 11-19-14-35-21-35-15 0 17-80 99-129 133l-44 30 46 14c35 10 47 18 47 33s-7 20-26 20c-32 0-30 12 16 113 25 56 39 73 75 95 24 15 43 31 42 36-3 8-33 29-44 31-1 1 4 39 13 85 16 95 8 169-27 254-15 36-19 60-15 95 8 60-3 79-38 63-29-13-23-19-176 208-46 69-103 151-127 184-24 32-43 69-43 83 0 13-7 37-15 52-11 22-20 27-38 24-17-3-28 2-40 20-24 37-240 292-302 357-75 78-125 148-125 173 0 41-21 97-36 97-8 0-20-11-26-25s-14-25-17-25-33 25-66 55l-60 55h-97c-79 0-98-3-98-14zm702-1627c44-32 61-73 56-140-5-69-28-100-94-125-83-32-148-4-190 83-24 48-26 58-16 91 13 44 66 99 108 112 40 13 101 3 136-21zm1067-1087c14-10 36-34 49-52 60-89-16-230-123-230-48 0-120 41-140 80s-19 108 3 150c38 72 147 100 211 52z"/>
   <path d="m1148 2273c-20-24-17-43 8-60 19-12 24-12 38 2 22 22 20 52-3 65-25 13-25 13-43-7z"/>
   <path d="m2230 1176c-6-8-10-25-8-38 2-18 9-23 32-23 40 0 56 27 32 54-22 25-39 26-56 7z"/>
  </g>
  <g transform="matrix(.010581 -.0016803 -.0016803 -.010581 83.022 92.468)">
   <path d="m1683.9 2993.4c-26.658 19.858-79.802 52.504-117.77 72.085s-74.524 39.195-80.972 42.573c-5.7593 4.1025-18.553 6.6178-27.036 6.4095-9.8965-0.243-26.381 8.5475-37.244 18.891s-33.003 18.995-48.555 18.613c-15.552-0.3818-34.794 5.5117-42.761 13.097-7.9667 7.585-17.243 10.894-20.001 7.9968-2.7582-2.897-21.896-1.2448-41.794 2.5106-52.657 12.854-239.24 6.8585-252.34-6.9022-6.2058-6.5183-13.205-9.5194-16.827-6.0717-5.0697 4.8268-78.825-16.082-89.238-24.118-2.0687-2.1728-34.273-15.695-71.409-30.046-37.136-14.351-77.03-31.598-88.856-39.669-12.551-7.3813-31.411-17.04-42.617-21.558-34.308-14.281-159.95-111.44-170.77-131.51-6.1018-10.76-19.238-23.106-28.341-26.866-23.791-10.487-99.71-87.326-116.67-116.74-7.4462-13.622-30.682-46.729-51.23-74.112-20.547-27.382-40.301-58.282-42.92-66.834-3.3089-9.2764-18.166-37.934-33.093-63.764-14.927-25.83-31.749-60.902-36.988-78.006-5.9629-16.415-15.304-39.278-22.82-50.073-11.549-19.381-29.715-57.315-45.674-98.731-3.9637-11.414-15.924-42.83-26.54-71.384-10.651-27.14-21.198-58.521-23.093-67.762-1.895-9.2417-10.993-42.002-20.851-72.658-9.1676-29.932-16.197-60.52-14.645-66.14 2.2769-6.31-3.1006-17.759-10.686-25.726-6.8954-7.2425-9.48-17.208-5.8587-20.656 4.3454-4.1373 1.0366-13.414-6.5484-21.38-7.5849-7.9667-8.721-19.312-2.927-24.828 5.7939-5.5163 5.3474-16.137-1.548-23.38-6.8954-7.2425-12.238-20.105-12.03-28.588 0.4859-19.793-9.7831-62.484-19.124-85.348-4.7227-9.3111-4.445-20.621-0.8238-24.069 3.6213-3.4477 2.3116-7.7237-4.0331-8.5868-6.31-2.2769-7.4461-13.622-3.6166-25.552 4.5537-12.62 1.349-26.138-5.6505-29.139-6.2753-3.6906-12.377-14.45-10.72-24.312 0.9325-9.1723-7.615-35.553-19.094-57.762-12.169-22.933-19.441-43.624-16.544-46.382 5.0697-4.8268-11.648-44.14-22.75-52.9-4.1719-2.9317-14.237-25.106-22.785-51.486-8.5822-24.967-28.887-62.246-44.642-83.145-17.169-20.934-36.164-53.937-44.161-73.938-12.581-34.968-45.778-94.49-78.564-141.98-8.205-11.519-24.546-37.383-36.819-56.075-29.993-46.005-155.52-176.4-255.85-267.28-112.85-99.673-202.42-196.65-203.96-220.03-1.1708-9.9313-5.8935-19.242-12.204-21.519-25.309-6.2799-55.982-111.01-57.521-192.39-0.9926-46 1.4277-86.965 5.7732-91.102 4.3455-4.1373 12.52-20.205 17.144-35.652 5.3127-14.723 23.181-51.065 40.185-81.062 16.97-28.584 34.01-59.995 37.735-67.684 6.7265-14.689 11.831-20.929 43.286-63.303 10.933-13.171 17.59-25.032 16.901-25.756-1.3791-1.4485 21.97-30.583 60.529-74.197 16.727-18.687 32.834-40.926 36.559-48.615 22.352-46.134 289.91-313.3 353.16-354.19 16.519-10.204 38.832-25.925 48.971-35.578 10.139-9.6535 24.486-17.789 32.279-18.305 7.7932-0.516 17.863-7.3419 21.589-15.031 3.0012-6.9995 31.902-31.754 63.56-53.611 32.383-22.546 67.628-46.438 78.422-53.953 38.142-26.649 153.32-79.7 175.98-80.558 11.345-1.1361 22.794-6.5136 25.071-12.824 3.8989-14.758 100.08-42.812 135.39-40.53 14.827 1.0714 31.173-2.064 36.242-6.8907 5.0697-4.8268 26.381-8.5476 46.174-8.0617 19.793 0.486 39.035-5.4075 43.45-12.372 8.9687-19.585 53.898-5.7501 97.582 29.981 27.066 21.177 52.44 53.629 82.259 106.7 72.635 124.15 119.18 187.54 217.09 290.38 88.951 93.428 98.639 102.15 226.94 177.45 73.89 44.253 165.19 99.544 202.77 124.52 67.545 43.39 108.78 63.5 169.09 84.786 35.067 12.178 48.927 23.835 32.582 26.971-6.4141 1.9645-7.932 6.1711-4.4843 9.7924 4.1373 4.3455 11.93 3.8295 17.724-1.6869 10.864-10.343 145.09 53.782 347.46 166.26 67.684 37.735 154.19 86.542 191.88 107.27 37.686 20.73 72.545 41.391 77.372 46.461s17.377 12.451 27.894 16.246c25.964 8.4179 197.74 98.928 296.08 155.81 70.442 40.632 98.162 63.947 205.18 170.55 107.02 106.6 133.15 136.95 186.96 221.03 34.06 53.178 65.259 107.7 67.739 121.91 2.5152 12.794 18.682 45.727 34.299 72.281 40.782 67.489 55.913 113.84 65.587 209.56 12.909 136.83 0.7221 229.9-39.667 290.44-14.728 23.687-33.146 53.65-39.873 68.338-8.8992 16.757-36.421 42.96-86.151 80.642-77.802 57.505-140.08 87.805-183.98 89.557-47.449 2.3718-102.38 21.535-134.87 48.323-25.279 21.306-30.522 33.202-30.527 62.202 0.7497 55.897-43.82 171.51-77.101 201.82-16.623 14.446-34.109 35.236-40.042 46.407-7.416 13.964-14.589 18.032-19.416 12.962-5.5164-5.794-9.8618-1.6568-15.209 14.48s-22.729 32.686-66.631 63.438c-33.797 22.512-71.215 48.471-84.182 58.056-12.967 9.5842-31.554 17.616-39.348 18.132-9.207 0.4813-19.208 4.4797-21.415 7.9621-5.8634 8.3439-25.175 17.065-78.695 36.263-19.277 7.3073-34.347 16.132-34.452 20.374-0.8284 4.9309-8.0015 8.9987-17.208 9.48-10.621 0.4466-14.966 4.5838-13.071 13.826 1.275 5.6898-3.9683 17.586-11.935 25.17-7.9668 7.5849-22.868 38.341-32.804 68.512-9.9358 30.171-29.907 65.754-42.943 78.166-13.036 12.412-21.142 25.652-17.694 29.273 2.7582 2.897-0.9672 10.586-8.1749 16.068-8.6216 5.4469-18.176 20.066-22.695 31.272-4.5537 12.62-33.593 43.029-71.15 74.644-35.384 29.546-64.354 57.128-63.079 62.818 1.3096 4.2761-0.9325 9.1723-4.5191 11.206-2.897 2.7582-27.383 20.547-54.041 40.405zm39.857-182.92c31.073-26.823 57.25-55.887 58.113-62.232 0.8978-7.7585 24.351-41.134 51.357-75.13 27.73-34.685 50.528-70.199 52.185-80.061 1.8997-19.758-20.751-47.9-31.615-37.557-11.588 11.033-77.932 5.16-100.89-10.257-11.861-6.6571-22.378-10.452-25.275-7.6937s-29.585-4.9702-58.308-16.285c-29.412-12.039-71.409-30.046-93.821-39.084-63.72-26.32-131.4-64.055-163.95-92.44-17.343-13.865-37.478-29.213-45.167-32.938-23.757-11.9-175.52-168.41-187.62-194.17-6.7565-12.898-30.717-45.315-54.092-72.767-23.375-27.452-48.61-65.56-55.193-85.526-47.668-132.73-54.733-161.91-54.381-205.04 0.9719-39.586 4.8013-51.516 24.148-61.651 19.381-11.549 82.277-9.2973 93.999 3.0149 2.0686 2.1728-2.4157 11.965-9.0728 23.826-15.452 24.377 1.8119 99.069 30.083 128.76 11.722 12.312 19.858 26.658 18.305 32.279-3.9683 17.586 98.768 154.5 176.72 234.92 97.26 100.71 339.44 262.26 360.44 242.26 3.6212-3.4477 12.035-0.4119 18.93 6.8306 30.34 31.867 184.92 44.857 256.27 19.73 62.762-21.093 128.59-52.014 145.98-68.563 7.9667-7.5849 26.554-15.616 40.762-18.097 30.518-4.202 150.29-100.29 147.19-118.05-1.9645-6.4141 7.5202-18.206 20.452-26.376 33.072-21.822 76.641-125.44 70.613-168.02-2.3764-18.449-3.2349-41.104-0.9233-48.828 1.5873-7.0342 0.4165-16.965-3.7207-21.311-3.4477-3.6212-6.5831-19.967-6.8908-36.242-0.3078-16.276-5.5117-34.794-11.028-40.588-11.722-12.312-56.429-121.63-56.047-137.18 0.1042-4.2413-6.6871-15.725-14.962-24.416-8.2745-8.6909-15.066-20.175-14.237-25.106-0.4466-10.621-36.853-54.661-116.81-140.09-68.264-71.701-89.02-90.6-106.61-94.569-8.448-1.6221-16.033-9.5888-17.308-15.279-1.2403-7.1036-9.5841-12.967-18.032-14.589-9.1722-0.9325-31.446-15.626-50.822-33.077s-40.236-32.11-45.202-31.524c-5.6551-0.1389-16.102-6.7612-22.998-14.004s-18.826-11.072-24.55-8.3832c-7.1384 2.654-25.999-7.0042-40.479-22.213-17.273-16.692-45.926-30.835-73.374-36.46-24.62-5.5557-49.17-13.939-53.307-18.284-4.8268-5.0697-22.308-13.279-38.445-18.627-43.48-15.214-48.927-23.835-31.853-56.66 31.182-60.064 41.872-63.338 118.97-34.567 38.549 14.386 95.925 39.843 129.47 56.228 32.825 17.074 62.892 31.251 67.857 30.666 4.9309 0.8284 16.757 8.8992 27.1 19.763 9.6535 10.14 23.583 18.969 32.066 19.178 7.0689 0.1735 25.93 9.8317 41.204 21.524 15.274 11.692 36.788 28.489 48.615 36.559 74.371 53.46 169.7 146.34 231.45 224.24 56.919 72.837 75.949 104.43 66.534 113.39-3.6213 3.4477-0.8978 7.7585 5.4121 10.035 6.3447 0.8631 16.618 14.554 22.616 29.555 5.9976 15.001 16.683 40.727 23.37 56.452 20.027 48.589 51.334 69.87 109.26 72.707 122.96 4.4334 211.21-46.449 286.37-169.09 26.524-43.203 41.564-79.614 42.085-100.82 0.4512-18.379 1.1801-48.069 1.6313-66.448 4.5977-72.034 2.1218-115.24-5.4632-123.21-4.1372-4.3455-7.3766-16.45-5.7199-26.311 0.9325-9.1722-5.6505-29.139-13.821-42.071-8.1356-14.346-22.924-45.831-32.23-70.109-35.743-99.902-97.797-194.08-208.67-316.34-43.372-48.455-97.26-100.71-118.12-115.36-21.584-13.969-46.581-32.973-57.683-41.733-23.548-20.383-59.752-43.906-110.78-68.5-20.964-10.417-39.755-22.903-43.168-27.938-1.9992-5.0003-22.963-15.417-45.375-24.456-22.412-9.038-42.652-20.145-44.686-23.731-2.7235-4.3108-21.584-13.969-41.893-22.248-69.995-30.011-76.995-33.012-108.92-57.845-17.343-13.865-50.133-32.353-72.58-39.977-22.412-9.038-43.307-22.283-45.961-29.421-2.6541-7.1383-12.377-14.45-21.549-15.383-7.7585-0.8978-46.204-19.525-83.166-40.944s-74.718-39.322-83.166-40.944c-8.448-1.622-16.102-6.7612-17.377-12.451-1.275-5.6899-15.929-13.83-32.066-19.178-16.102-6.7612-34.273-15.695-39.79-21.489s-34.169-19.936-62.167-31.941c-46.238-18.111-95.131-43.36-111.75-57.914-3.4824-2.2075-26.068-4.1766-51.516-4.8013-47.379-0.4558-121.1-22.778-140.41-43.057-15.894-15.244-52.548-20.388-86.757-9.9104-74.072 20.816-65.872 61.334 24.051 115.18 33.445 20.626 71.166 39.942 84.51 43.807 12.62 4.5537 25.24 9.1075 29.412 12.039 3.4824 2.2074 8.3786 4.4496 11.171 5.9328 2.7929 1.4832 7.6891 3.7253 11.861 6.657 3.4824 2.2075 43.237 25.11 87.888 50.255 46.065 25.18 104.65 59.155 131.85 74.676 27.204 15.522 63.512 34.803 81.717 42.323 16.792 7.4855 40.444 23.627 52.167 35.939 17.238 18.106 18.444 26.624 6.6825 44.725-11.037 17.412-21.762 22.1-49.314 20.716-19.069-1.1755-38.758-5.9028-42.895-10.248-4.1372-4.3454-15.309-10.278-25.825-14.073-17.551-5.3821-64.995-32.01-159.71-92.336-23.687-14.728-50.063-35.18-57.614-44.561-8.2398-10.105-18.032-14.589-21.653-11.141-4.3455 4.1373-11.38 2.5499-16.206-2.5198-4.8268-5.0697-28.584-16.97-52.41-26.043-23.137-8.3485-47.583-20.973-53.789-27.491-5.5163-5.7939-13.24-8.1055-16.861-4.6578-3.6213 3.4477-15.621 2.4458-26.068-4.1766-10.482-5.2085-36.516-10.799-57.722-11.32-21.896-1.2449-47.275-4.6972-55.654-9.1468-17.481-8.2097-42.002 10.993-42.522 32.2-0.1735 7.069-12.694 27.274-27.248 43.892-15.279 17.308-28.489 36.789-30.8 44.512-1.5873 7.0342-7.416 13.964-12.382 14.55-14.932 3.1701-15.418 22.963-2.9757 63.586 15.647 54.14 110.04 156.19 217.03 235.21 73.612 55.564 86.058 67.186 90.469 89.221 4.9957 27.001-17.421 46.963-49.869 43.337-15.517-1.7956-61.582-26.975-99.784-55.499-9.0334-6.5877-16.688-11.727-17.412-11.037-3.6212 3.4477-41.754-27.903-85.989-70.014-60.818-58.079-117.99-92.019-153.36-91.473-28.31 0.7197-108.42 65.948-112.6 92.017-0.8978 7.7585-6.6918 13.275-12.312 11.722-9.1375-2.3463-61.353 50.128-72.529 73.195-3.6906 6.2753-9.4152 8.964-12.863 5.3428-10.343-10.864-70.56 50.609-68.183 69.058-0.2082 8.4827 16.098 35.761 34.611 59.557 74.709 97.322 149.69 212.33 165.03 250.2 48.532 126.39 55.695 180.32 23.178 179.52-14.138-0.3471-72.402-76.046-144.59-189.57-48.333-76.87-154.63-184.16-191.83-195.69-16.861-4.6579-35.31-2.2815-46.174 8.0616-35.384 29.546-122.6 96.015-136.22 103.46-7.1731 4.0678-15.279 17.308-16.97 28.584-5.6598 28.861 25.499 113.8 44.394 122.04 7.689 3.7254 13.136 12.347 11.549 19.381-2.2769 6.31 3.0659 19.173 11.34 27.864 26.168 28.935 83.178 184.53 74.244 202.7-25.388 54.548-56.938 43.163-91.167-31.946-14.099-30.761-33.714-67.316-43.987-81.007-10.274-13.691-34.854-49.661-55.332-79.871-29.993-46.005-41.715-58.317-71.816-71.08-43.376-19.455-61.101-17.768-94.932 6.1573-21.589 15.031-23.9 22.755-16.662 44.859 15.165 44.934 69.734 155.91 119.86 246.26 50.778 92.491 63.567 118.98 114.2 246.12 21.991 55.004 32.191 100.52 31.254 138.69-0.8029 61.517-5.9768 70.585-39.322 74.718-17.724 1.6869-24.689-2.728-32.651-24.143-6.0323-13.587-7.0643-29.174-2.7189-33.311 5.0698-4.8268 4.4497-8.3786 0.2083-8.4827-5.6552-0.1388-11.583-17.967-14.615-38.554-3.0312-20.587-13.682-47.726-23.956-61.418-9.5841-12.967-18.995-33.003-19.441-43.624-0.4466-10.621-15.131-46.347-33.436-78.626-17.581-32.968-35.092-68.764-39.78-79.489-3.9637-11.414-16.063-37.175-26.163-57.935-10.824-20.071-21.51-45.796-25.474-57.211-8.4781-29.208-60.432-102.63-67.674-95.735-3.6212 3.4477-2.381 10.551 3.1354 16.345 4.8267 5.0697 13.548 24.382 18.097 40.762 5.2387 17.104 13.96 36.416 19.476 42.21 5.5164 5.794 11.41 25.036 13.097 42.761s7.5803 36.967 13.097 42.761c9.6536 10.14 36.671 119.73 55.413 220.63 3.1006 17.759 8.2351 39.105 11.579 46.967 2.6193 8.5521 7.6844 32.725 10.026 52.588 3.0312 20.587 7.4068 44.036 10.75 51.898 2.6193 8.5521 9.7183 36.312 14.749 61.899s16.748 66.899 26.02 92.59c8.5475 26.381 18.474 54.21 20.369 63.452 2.5846 9.966 12.685 30.726 22.889 47.245 10.204 16.519 19.615 36.555 20.166 42.934 2.4458 15.621 68.151 133.94 82.631 149.15 5.5163 5.794 29.442 39.625 51.919 74.836 95.425 146.64 216.68 278.34 307.98 333.64 29.963 18.419 67.58 41.976 83.578 52.979 40.34 27.868 156.68 71.749 203.95 76.446 21.172 1.9344 40.172 5.9374 42.93 8.8344 8.9641 9.4152 141.83 14.092 151.24 5.1275 5.0697-4.8267 19.242-5.8934 31.173-2.064 11.93 3.8295 31.793 1.4879 43.277-5.3034 12.208-7.4808 25.002-9.996 28.449-6.3748 6.2059 6.5182 46.829-5.9236 54.175-17.06 2.897-2.7582 15.001-5.9976 28.449-6.3748 14.173-1.0667 34.829-6.9255 47.037-14.406 12.898-6.7566 51.625-28.44 86.732-46.676 35.831-18.925 78.249-46.884 94.907-62.744 17.347-15.135 36.728-26.684 43.763-25.096 7.7237 2.3116 12.034-0.4118 10.105-8.2397-1.2749-5.6899 23.454-33.376 53.837-60.922zm-969.11-2128.8c15.899-13.756 30.522-33.202 32.179-43.064 0.9325-9.1722 14.797-26.515 29.937-38.168 14.45-12.377 26.901-29.754 28.558-39.616 1.6568-9.8618 10.452-22.378 21.177-27.066 9.3111-4.7227 17.313-13.721 16.038-19.411-2.5846-9.9659 5.4515-20.378 51.942-70.164 11.623-12.446 18.28-24.308 16.211-26.48-2.7581-2.897 2.4851-14.793 12.004-27.998 8.7951-12.516 33.801-51.512 54.497-87.784 20.696-36.273 46.391-74.544 56.565-85.612s22.868-38.341 27.665-60.858c4.7967-22.516 13.11-44.239 17.456-48.376s2.0386-25.413-6.6131-47.553c-11.856-35.657-20.131-44.348-62.54-74.389-27.824-19.073-54.925-38.836-60.441-44.63-5.5164-5.7939-18.102-11.762-26.55-13.384-9.8618-1.6567-48.719-32.318-86.713-69.324-38.684-37.73-87.021-85.6-109.16-105.95-21.41-21.038-40.683-42.731-42.682-47.731-1.275-5.6899-12.858-23.657-25.235-38.108-25.409-31.038-64.4-85.045-62.952-86.424 0 0-10.928-15.829-25.339-33.866-15.1-18.761-29.65-31.143-31.823-29.074-18.865 19.342-109.75 148.67-119.48 170.36-6.7265 14.689-18.419 29.963-26.281 33.306-7.8626 3.3436-14.381 9.5495-14.485 13.791 0.3771 13.448-36.768 57.098-78.05 96.401-21.693 19.272-37.006 37.994-33.558 41.615 2.7581 2.897-24.178 34.065-60.425 69.956-36.212 34.477-65.286 66.3-65.391 70.541-0.1041 4.2413-7.9667 7.5849-17.898 8.7557-9.8965-0.2429-14.242 3.8943-10.794 7.5155 7.5849 7.9668-78.601 90.022-99.222 94.467-7.1036 1.2403-10.794 7.5155-7.416 13.964 2.654 7.1384-1.0019 12-10.244 13.895-12.104 3.2394-103.74 76.673-158.05 128.39-7.2425 6.8954-18.657 10.859-24.967 8.5822-7.7238-2.3116-11.345 1.1361-9.4152 8.964s-15.418 22.963-53.49 46.785c-30.176 19.064-56.834 38.922-58.352 43.129-0.8284 4.9309-15.829 10.928-32.175 14.064-15.621 2.4458-42.141 16.648-58.005 28.991-29.59 24.03-94.009 54.985-112.39 54.534-5.6551-0.1388-17.863 7.342-27.278 16.306-9.4153 8.964-23.657 12.858-31.346 9.1329-8.4133-3.0358-20.483-1.2101-27.001 4.9957-15.209 14.48-120.38 34.533-129.35 25.117-11.033-11.588-17.759 3.1006-12.694 27.274 4.4449 20.621 28.336 55.867 81.842 123.67 10.963 14.416 51.82 50.077 89.987 80.014 111.74 86.914 326.12 314.98 333.63 354.78 3.7207 21.311 44.399 93.042 63.671 114.73 9.6535 10.14 29.893 21.246 44.686 23.731 28.137 6.3493 129.31-23.704 149.59-43.011 6.5182-6.2059 14.346-8.1357 17.794-4.5144 3.4477 3.6212 10.621-0.4466 16.519-10.204 5.1738-9.0681 15.933-15.17 22.243-12.893 6.3447 0.8631 14.966-4.5838 18.692-12.273 4.4496-8.3786 14.485-13.791 24.347-12.134 11.965 2.4157 15.552 0.3818 11.518-8.2051-2.6193-8.5521 1.7609-14.103 13.175-18.067 22.794-6.5136 132.22-84.462 202.26-142.86 28.9-24.754 55.559-44.612 58.386-44.542 3.5519-0.6202 16.588-13.032 28.97-27.582 13.106-15.239 32.522-28.202 43.142-28.648 14.172-1.0667 17.794-4.5144 15.279-17.308-2.5152-12.794 0.3818-15.552 16.692-17.273 10.621-0.4465 21.346-5.1345 22.174-10.065s25.418-26.962 54.249-48.888c28.142-22.651 61.422-52.956 73.149-69.644 12.416-15.964 34.937-40.167 51.56-54.612zm-605.7-826.17c75.287-70.298 172.65-175.42 206.35-222.69 18.28-24.307 45.32-59.717 61.323-77.714 15.313-18.722 29.317-41.72 30.25-50.892 0.9672-10.586 7.5548-19.62 13.934-20.17 6.4141-1.9645 15.244-15.894 18.453-31.376 3.9336-16.172 12.074-30.826 19.178-32.066 16.345-3.1353 1.106-16.241-20.79-17.486-9.8965-0.2429-26.068-4.1765-35.171-7.9366-9.0681-5.1739-20.378-5.4515-24.724-1.3143s-31.416 11.96-60.52 16.197c-28.415 4.961-56.899 12.75-61.968 17.576-5.794 5.5163-28.658 14.858-51.452 21.371-22.829 7.9274-42.865 17.338-44.418 22.958-1.5526 5.6204-9.4499 10.378-17.967 11.583-16.276 0.3078-95.973 48.571-151.46 90.355-18.002 12.997-38.797 24.511-46.59 25.027-7.7932 0.516-18.588 8.0315-22.348 17.134-3.7601 9.1028-10.898 11.757-15.725 6.6871-6.2059-6.5182-9.0682-5.1739-10.105 8.2398-2.4157 11.965-16.211 26.48-52.87 50.336-27.313 17.72-64.042 44.404-80.664 58.849s-37.453 27.373-45.281 29.303c-7.8279 1.9298-15.829 10.929-16.762 20.101-0.9672 10.586-25.626 35.444-64.632 68.438-42.592 35.028-60.767 55.094-55.941 60.164 4.8268 5.0698-8.3485 23.137-31.524 45.202-58.664 55.853-120.51 154.77-144.28 229.87-12.247 37.895-20.874 72.342-19.599 78.031 0.5854 4.9656 24.997 19.004 52.271 31.698 39.894 17.248 61.066 19.182 100.93 8.8437 27.036-6.4095 56.348-19.129 65.763-28.093 8.691-8.2745 20.175-15.066 24.416-14.962 11.31 0.2776 53.108-31.233 120.36-91.119 27.487-24.789 51.972-42.578 54.041-40.405 2.7582 2.897 12.069-1.8257 21.484-10.79 39.868-39.338 226.96-198.14 232.62-198 4.2414 0.1041 7.9668-7.585 8.8993-16.757 1.622-8.448 21.35-34.135 44.526-56.2z"/>
   <path d="m1485.9 2816c-42.761 13.097-132.55 11.6-146.34-2.8854-3.4477-3.6212-13.344-3.8642-21.896-1.2448-7.8626 3.3435-19.138 1.6521-24.654-4.1419s-13.205-9.5193-18.206-7.5201c-7.1383 2.654-72.927-25.839-166.61-70.578-55.237-26.112-190.8-180.1-189.97-214.03 0.1736-7.069-5.1692-19.932-11.375-26.45-6.2058-6.5183-8.4087-32.036-4.2668-56.69 9.9752-60.585 25.423-55.961 93.375 28.463 30.236 36.108 61.85 73.665 72.228 83.115 30.409 29.039 140.4 101.06 151.78 98.507 5.6899-1.275 16.172 3.9336 24.446 12.624 14.48 15.209 65.65 34.148 106.55 39.396 12.689 1.7262 24.62 5.5557 25.929 9.8317 4.6533 12.139 73.344 8.8738 115.41-4.9471 46.382-16.544 58.243-9.8873 69.132 36.356 8.9594 38.415-12.803 60.515-75.53 80.195z"/>
   <path d="m2633.4 1655.8c-22 2.9965-24.069 0.8238-28.266-58.694-4.6787-68.725-14.293-109.28-28.773-124.49-5.5163-5.7939-6.7565-12.898-2.411-17.035 7.2424-6.8954-25.37-61.452-49.573-83.973-7.5849-7.9668-12.273-18.692-10.686-25.726 1.5873-7.0342-11.306-29.278-28.51-48.798-17.169-20.934-49.369-63.456-71.916-95.839-54.677-77.733-98.808-124.08-120.7-125.33-14.862 0.3424-16.861-4.6579-13.548-24.382 6.4881-33.792 29.456-47.375 70.317-40.713 30.275 5.6944 44.859 16.662 119.36 93.467 84.193 85.531 187.45 230.24 209.95 293.03 22.577 59.969 26.284 168.28 8.2769 210.28-15.73 35.687-25.145 44.651-53.525 48.198z"/>
  </g>
  <g transform="matrix(.035278 0 0 -.035278 38.269 305.11)">
   <path d="m2142 4848c-7-7-12-33-12-58 0-58 12-70 70-70h46l13-64c7-36 10-70 5-77-4-8-3-10 4-5 7 4 12 2 12-3 0-6-8-11-19-11-37 0-229-53-326-91-173-67-373-195-509-326-73-70-181-216-231-313-61-120-82-180-119-342-6-25-11-28-46-28h-40v-90h3140v90h-40c-35 0-40 3-46 28-38 176-106 338-196 470-148 212-382 396-643 503-97 39-305 99-347 99-12 0-18 5-16 13 3 6 11 42 18 80l14 67h46c58 0 70 12 70 70 0 25-5 51-12 58-17 17-819 17-836 0zm659-203-15-75-36 7c-46 9-334 9-380 0l-36-7-15 75-16 75h514zm439-301c23-9 37-21 33-27s-1-7 6-2c32 19 101-88 101-156 0-33-6-47-34-75-29-29-41-34-82-34-27 0-67 9-89 19-43 19-100 78-116 118-20 52-3 143 23 127 7-4 8-3 4 5-9 14 46 40 86 41 15 0 46-7 68-16z"/>
   <path d="m352 3447c-27-29-28-77-3-108 18-23 26-24 143-26 122-2 124-2 213-45 50-23 93-46 96-51s9-7 11-5c11 7 147-66 141-75-3-6-1-7 6-3 6 4 20 4 31 1 16-5 20-15 20-50 0-31 17-82 65-189 36-81 72-160 80-176l16-30h289c160 0 290-3 290-6 0-9-90-547-95-571-5-23-7-23-195-23h-190l6-42c3-24 19-62 35-84 15-23 27-43 26-45s0-3 1-2c2 1 27-16 55-38 53-40 128-69 179-69 27 0 28-2 23-42-2-24-36-234-75-468s-74-441-76-460c-23-166-41-245-57-248-15-3-17 8-17 107 0 130-1 131-108 131-105 0-101 9-102-270 0-129-1-243 0-252 0-36 28-48 109-48 46 0 82 5 89 12 8 8 12 48 12 115 0 57 4 103 8 103 5 0 7-13 4-30-5-32-2-34 61-45 34-5 37-4 37 19 0 60-34 56 516 56h504v-131l58 3 57 3 3 62 3 63h1009l6-27c11-52 12-53 46-47 58 10 61 12 56 44-3 17-1 30 4 30 4 0 8-46 8-103 0-67 4-107 12-115 19-19 163-16 182 4 14 13 16 52 16 268 0 298 4 286-104 286-105 0-106-1-106-130 0-91-3-110-15-110-8 0-17 10-20 22-8 35-195 1167-195 1182 0 8 18 15 51 19 126 15 257 128 273 235l6 42h-190c-188 0-190 0-195 23-5 24-95 562-95 571 0 3 132 7 292 8l293 3 77 170c57 125 77 182 78 215l1 45 198 94 199 94 106-2c141-3 176 15 176 88 0 16-10 37-23 49-21 20-34 22-145 22-112 0-123-2-145-22-14-13-25-26-25-31 0-4-2-11-4-15-6-15-309-153-320-146-7 4-8 3-4-4s2-12-3-12c-6 0-11 9-11 20 0 20-7 20-1550 20s-1550 0-1550-20c0-11-5-20-11-20-5 0-7 5-3 12s3 8-4 4c-6-4-81 26-166 66-127 60-157 78-167 101-6 15-20 32-30 37-10 6-71 10-137 10-111 0-120-1-140-23zm2028-406c5-11 10-52 10-91 0-78-11-110-38-110-34 0-42 22-42 110 0 54 5 91 12 98 18 18 46 14 58-7zm210 0c5-11 10-52 10-91s-5-80-10-91c-13-23-55-25-64-3-11 29-7 179 6 192 18 18 46 14 58-7zm206 8c10-16 12-162 3-188-10-25-54-29-63-5-11 29-7 179 6 192 15 15 45 16 54 1zm-296-659v-300h-745l49 300 50 300h646zm816 0 49-300h-745v600h646zm-816-1190v-610h-495c-438 0-495 2-495 15 0 16 186 1142 195 1183l5 22h790zm915 588c10-45 65-387 64-395-1-4 1-15 4-23 7-17 127-741 127-765 0-13-56-15-495-15h-495v1220h790z"/>
  </g>
 </g>
</svg>
