<?xml version="1.0" standalone="no"?>
<!DOCTYPE svg PUBLIC "-//W3C//DTD SVG 20010904//EN"
 "http://www.w3.org/TR/2001/REC-SVG-20010904/DTD/svg10.dtd">
<svg version="1.0" xmlns="http://www.w3.org/2000/svg"
 width="900.000000pt" height="900.000000pt" viewBox="0 0 900.000000 900.000000"
 preserveAspectRatio="xMidYMid meet">
<metadata>
Created by potrace 1.15, written by Peter Selinger 2001-2017
</metadata>
<g transform="translate(0.000000,900.000000) scale(0.100000,-0.100000)"
fill="#000000" stroke="none">
<path d="M3110 8988 c0 -4 -6 -8 -13 -8 -41 0 -199 -106 -292 -196 -106 -103
-180 -226 -200 -336 -4 -21 -11 -38 -16 -38 -5 0 -6 -12 -3 -26 4 -14 2 -29
-3 -33 -7 -4 -8 -42 -3 -105 5 -55 6 -106 3 -113 -3 -7 0 -13 7 -13 7 0 10 -7
7 -14 -3 -8 0 -28 8 -44 8 -15 16 -37 19 -48 9 -43 22 -74 72 -174 54 -106 98
-177 275 -442 118 -177 187 -320 200 -419 8 -52 7 -79 -1 -100 -7 -15 -9 -33
-5 -38 3 -6 3 -16 -1 -23 -4 -7 -9 -23 -10 -36 -3 -29 -56 -142 -75 -162 -8
-8 -21 -30 -29 -48 -11 -29 -11 -35 1 -43 18 -11 46 -11 53 0 4 5 24 12 45 16
82 14 215 156 257 275 9 25 20 54 25 65 15 35 21 77 24 180 2 56 -1 105 -7
112 -5 7 -7 17 -3 23 4 6 1 18 -6 26 -6 8 -9 17 -6 20 3 3 -6 37 -19 76 -13
39 -21 75 -17 81 3 6 1 7 -5 3 -11 -6 -15 5 -11 30 0 4 -4 10 -9 13 -5 3 -28
42 -50 87 -22 44 -73 134 -112 200 -121 199 -161 274 -154 286 4 6 3 8 -3 5
-8 -5 -45 57 -49 83 0 3 -8 21 -16 40 -27 60 -50 149 -43 170 4 11 2 20 -4 20
-7 0 -11 26 -11 65 0 36 4 65 10 65 5 0 7 7 4 14 -10 26 57 226 76 226 3 0 7
6 7 13 0 18 82 153 121 198 19 22 32 46 29 53 -6 15 -67 28 -67 14z"/>
<path d="M4573 8989 c-5 -4 -32 -17 -62 -29 -79 -30 -156 -85 -242 -170 -77
-75 -179 -218 -179 -249 0 -10 -6 -26 -14 -36 -8 -11 -12 -25 -9 -32 3 -7 0
-13 -7 -13 -7 0 -9 -8 -5 -19 3 -11 2 -22 -3 -25 -10 -6 -7 -263 3 -289 4 -10
5 -21 1 -24 -3 -3 -1 -12 4 -19 6 -6 10 -16 9 -20 -1 -5 3 -22 10 -38 6 -16
13 -36 15 -45 3 -16 6 -25 39 -103 8 -20 13 -39 11 -42 -2 -3 -1 -4 3 -1 3 3
27 -32 53 -78 25 -45 107 -172 181 -282 128 -192 226 -361 215 -372 -3 -3 2
-12 10 -20 8 -9 12 -23 9 -34 -4 -10 -2 -19 4 -19 15 0 9 -252 -7 -258 -7 -2
-10 -8 -7 -12 7 -11 -39 -104 -63 -128 -9 -10 -23 -30 -31 -45 -8 -15 -18 -27
-23 -27 -4 0 -8 -7 -8 -16 0 -10 6 -14 15 -10 8 3 15 2 15 -3 0 -9 61 -10 70
-1 3 3 31 18 63 34 63 31 150 118 193 193 56 95 74 164 75 291 0 64 -2 135 -5
157 -15 94 -95 299 -157 402 -21 33 -35 64 -32 67 4 3 1 6 -6 6 -6 0 -16 10
-21 23 -6 12 -19 36 -29 52 -139 221 -214 370 -240 475 -14 57 -18 104 -16
195 4 165 25 220 161 436 41 64 74 118 74 121 0 9 -59 15 -67 7z"/>
<path d="M5970 8957 c-100 -44 -160 -86 -246 -171 -68 -67 -161 -196 -169
-234 -2 -9 -11 -37 -20 -62 -19 -50 -36 -316 -23 -360 11 -37 39 -154 39 -162
0 -13 69 -150 110 -220 22 -37 105 -163 185 -280 143 -209 205 -318 208 -364
0 -13 5 -24 10 -24 4 0 6 -7 2 -15 -3 -8 0 -15 5 -15 6 0 9 -9 6 -20 -3 -11
-1 -20 4 -20 5 0 8 -12 7 -27 -1 -16 2 -38 6 -49 9 -29 -12 -156 -27 -166 -7
-4 -9 -8 -4 -8 19 0 -85 -180 -117 -202 -17 -12 13 -28 53 -28 49 0 162 64
219 124 60 63 104 148 132 251 17 62 20 97 16 188 -3 62 -10 137 -16 167 -20
92 -94 258 -181 405 -237 400 -300 527 -303 607 -1 16 -4 28 -8 28 -5 0 -8 39
-8 88 0 71 6 103 30 172 17 47 32 93 35 104 6 25 56 114 126 222 33 50 59 94
59 97 0 17 -61 4 -130 -26z"/>
<path d="M4205 5958 c-27 -5 -87 -6 -132 -3 -53 4 -84 2 -88 -5 -3 -6 -23 -10
-43 -10 -59 1 -116 -5 -130 -14 -13 -8 -13 -96 1 -96 5 0 6 -9 2 -19 -3 -11
-1 -22 5 -26 11 -7 12 -269 1 -290 -3 -5 -6 -27 -7 -50 -3 -66 -45 -204 -71
-236 -33 -39 -59 -37 -105 11 -41 44 -129 214 -132 255 0 14 -5 25 -9 25 -5 0
-5 5 -2 10 3 6 1 10 -6 10 -6 0 -9 8 -6 20 3 11 1 20 -5 20 -6 0 -8 6 -5 14 3
8 2 16 -3 18 -5 2 -16 48 -25 103 -28 168 -30 175 -70 175 -18 0 -66 -7 -105
-15 -40 -8 -75 -13 -80 -10 -5 3 -10 1 -12 -4 -1 -6 -21 -12 -43 -15 -22 -2
-42 -6 -45 -7 -3 -1 -9 -3 -15 -4 -5 -1 -17 -4 -25 -8 -30 -11 -375 -92 -387
-91 -7 1 -13 -3 -13 -8 0 -6 -6 -8 -14 -5 -8 3 -17 3 -21 -1 -4 -4 -11 -8 -16
-8 -5 -1 -11 -3 -14 -4 -3 -1 -8 -3 -12 -5 -5 -1 -15 -4 -23 -8 -51 -20 -215
-65 -222 -61 -4 3 -8 0 -8 -6 0 -7 -7 -10 -15 -6 -8 3 -15 2 -15 -3 0 -4 -28
-16 -62 -26 -35 -11 -100 -34 -145 -53 l-82 -34 78 -90 c80 -91 200 -296 186
-318 -3 -5 -1 -10 6 -10 7 0 9 -3 6 -7 -4 -3 -2 -12 4 -20 6 -7 8 -13 4 -13
-4 0 -3 -6 2 -12 5 -7 10 -22 11 -33 0 -11 5 -49 11 -85 6 -36 11 -68 11 -72
0 -5 -20 -8 -44 -8 -123 0 -434 233 -571 428 -27 39 -56 74 -62 76 -17 7 -365
-168 -555 -279 -35 -20 -70 -40 -78 -45 -44 -24 -257 -163 -343 -222 -269
-186 -422 -342 -523 -534 -21 -40 -43 -70 -48 -67 -5 4 -6 1 -2 -5 4 -6 -2
-28 -12 -49 -11 -21 -29 -78 -42 -128 -12 -49 -25 -97 -29 -105 -4 -8 -7 -80
-5 -160 3 -152 6 -184 18 -212 4 -9 9 -25 11 -35 2 -10 4 -19 5 -20 2 -2 3 -6
4 -10 20 -91 185 -288 336 -400 68 -51 215 -126 247 -125 12 0 23 -3 23 -7 0
-4 8 -7 18 -8 9 0 62 -8 117 -18 113 -19 216 -16 355 11 47 9 92 17 100 18 9
1 21 5 28 10 6 4 12 5 12 2 0 -9 158 62 244 109 44 25 126 74 181 109 314 203
480 300 497 290 7 -4 8 -3 4 4 -5 8 57 43 177 102 101 49 189 90 196 90 6 0
30 9 52 20 22 12 44 18 49 15 6 -3 10 -2 10 3 0 6 19 18 43 27 62 25 327 114
327 110 0 -2 12 2 27 10 15 8 30 12 35 9 5 -3 15 0 23 6 8 7 15 10 15 7 0 -4
19 1 43 9 67 24 319 84 357 86 19 0 40 4 45 7 6 3 19 7 30 8 11 1 31 4 45 6
112 20 257 39 315 40 39 1 73 5 76 10 4 6 320 19 444 18 230 -2 409 -12 415
-21 5 -7 19 -10 36 -6 16 3 94 -3 174 -15 139 -19 158 -22 225 -34 17 -4 44
-8 60 -10 56 -6 343 -76 362 -88 4 -3 24 -8 44 -11 20 -3 49 -11 65 -17 16 -7
32 -12 36 -11 4 1 51 -15 105 -34 54 -20 114 -41 133 -46 97 -27 515 -218 658
-300 46 -26 86 -48 88 -48 8 0 234 -139 269 -164 63 -47 251 -161 348 -211 92
-47 123 -60 165 -70 8 -2 21 -7 30 -11 9 -4 26 -9 37 -11 11 -2 27 -6 35 -9 8
-4 24 -8 35 -9 11 -1 71 -8 133 -16 103 -12 125 -11 230 5 65 10 125 19 135
19 9 1 17 4 17 8 0 4 11 6 24 6 36 0 183 78 264 140 96 73 217 205 270 293 23
39 42 74 42 79 0 6 5 22 12 38 6 15 10 34 9 41 -1 6 2 12 8 12 10 0 10 -2 15
194 2 83 0 157 -4 165 -4 9 -20 61 -35 116 -51 191 -208 438 -366 576 -184
160 -512 377 -829 549 -123 66 -451 230 -462 230 -4 0 -20 -24 -34 -52 -38
-76 -74 -119 -194 -238 -64 -64 -133 -121 -175 -146 -74 -43 -173 -84 -205
-84 -94 0 6 315 183 580 39 58 53 87 47 96 -6 6 -54 26 -108 44 -53 18 -98 37
-100 41 -2 4 -10 5 -18 2 -8 -3 -14 -1 -14 4 0 5 -8 9 -17 9 -15 1 -190 52
-243 72 -8 3 -26 7 -40 9 -14 2 -26 8 -28 13 -2 5 -10 6 -18 3 -8 -3 -14 0
-14 7 0 7 -6 10 -14 7 -8 -3 -35 1 -60 8 -25 8 -110 28 -188 46 -79 17 -147
35 -152 39 -5 5 -14 6 -21 4 -7 -3 -16 -1 -19 4 -3 6 -15 8 -26 5 -12 -3 -20
0 -20 7 0 7 -7 10 -15 6 -8 -3 -40 -1 -71 5 -72 13 -76 9 -108 -103 -23 -78
-80 -215 -95 -228 -3 -3 -7 -11 -9 -19 -3 -15 -78 -134 -108 -171 -111 -138
-154 -159 -196 -92 -21 34 -23 47 -22 177 1 139 16 292 35 351 14 45 23 106
21 139 -2 21 -20 26 -99 25 -23 0 -45 5 -48 11 -5 6 -26 8 -60 4 -30 -4 -59
-3 -67 1 -7 5 -56 9 -108 10 -394 9 -622 9 -665 2z"/>
<path d="M4324 3671 c-2 -2 -4 -170 -4 -373 l0 -368 -246 0 -245 0 3 315 c2
173 0 315 -3 315 -4 0 -10 11 -13 25 -9 34 -43 40 -127 21 -39 -9 -75 -14 -79
-11 -5 3 -11 1 -15 -4 -3 -6 -25 -13 -49 -16 -23 -4 -48 -10 -54 -14 -13 -8
-19 -1032 -7 -1064 4 -9 4 -33 1 -53 -4 -19 -3 -41 2 -47 5 -7 13 -30 17 -52
19 -108 113 -259 216 -347 130 -111 316 -178 496 -178 l103 0 2 -873 3 -872
175 0 175 0 3 872 2 873 103 0 c127 0 229 25 352 83 159 77 271 192 356 367
l40 83 6 599 c5 501 4 601 -7 608 -8 5 -36 12 -62 15 -26 4 -48 11 -48 17 0 5
-4 7 -9 4 -5 -3 -41 1 -80 10 -85 19 -118 13 -132 -24 -7 -17 -10 -141 -9
-339 l1 -313 -256 0 -255 0 0 373 0 372 -176 0 c-96 0 -177 -2 -180 -4z"/>
<path d="M6060 850 c-11 -7 -5 -10 23 -10 l37 0 0 -85 c0 -50 -4 -85 -10 -85
-5 0 -10 -9 -10 -20 0 -11 5 -20 10 -20 6 0 10 9 10 20 0 16 7 20 31 20 62 0
139 89 125 144 -6 26 -8 27 -78 25 -47 -1 -73 2 -76 10 -4 13 -41 14 -62 1z"/>
<path d="M5780 730 c0 -53 -2 -60 -20 -60 -18 0 -20 -7 -20 -85 0 -78 2 -85
20 -85 18 0 20 -7 20 -84 0 -58 -4 -86 -12 -89 -7 -3 5 -3 27 0 48 7 55 16 55
69 0 70 21 72 60 6 l35 -57 3 78 c2 44 7 77 13 77 6 0 8 9 4 19 -4 13 4 28 25
49 45 46 39 102 -11 102 l-29 0 0 -85 0 -85 -85 0 -85 0 0 85 0 85 35 0 c34 0
35 1 35 41 0 53 -15 79 -45 79 -24 0 -25 -3 -25 -60z"/>
<path d="M6303 663 c-9 -3 -13 -30 -13 -83 0 -52 -4 -80 -12 -82 -9 -3 -9 -6
0 -12 7 -4 12 -2 12 3 0 7 32 11 85 11 l84 0 3 -87 3 -88 33 32 c26 26 32 39
32 75 0 49 -13 68 -47 68 -13 0 -23 6 -23 14 0 9 -23 22 -56 33 -58 19 -71 36
-31 41 14 2 31 -6 47 -23 13 -14 27 -25 32 -25 4 0 8 27 8 59 0 44 -4 60 -16
65 -18 7 -123 7 -141 -1z"/>
<path d="M6637 663 c-4 -3 -7 -42 -7 -85 0 -67 -2 -78 -17 -78 -14 0 -15 -2
-4 -12 11 -10 14 -10 18 0 3 8 31 12 89 12 l84 0 0 -80 c0 -44 4 -80 9 -80 22
0 51 54 51 94 0 45 -13 66 -42 66 -10 0 -18 6 -18 13 0 8 -27 22 -61 33 -63
19 -77 37 -36 42 14 2 31 -6 47 -23 38 -41 50 -33 50 34 0 52 -2 59 -22 65
-31 8 -133 8 -141 -1z"/>
<path d="M6103 589 c-19 -19 -17 -89 3 -89 13 0 15 -13 12 -88 l-3 -87 33 3
c41 5 52 29 52 113 l0 59 -39 0 -40 0 -3 51 c-2 40 -5 48 -15 38z"/>
</g>
</svg>
