<?xml version="1.0" standalone="no"?>
<!DOCTYPE svg PUBLIC "-//W3C//DTD SVG 20010904//EN"
 "http://www.w3.org/TR/2001/REC-SVG-20010904/DTD/svg10.dtd">
<svg version="1.0" xmlns="http://www.w3.org/2000/svg"
 width="772.000000pt" height="1280.000000pt" viewBox="0 0 772.000000 1280.000000"
 preserveAspectRatio="xMidYMid meet">
<g transform="translate(0.000000,1280.000000) scale(0.100000,-0.100000)"
fill="#000000" stroke="none">
<path d="M3511 12640 c-37 -170 -37 -171 -22 -286 29 -220 26 -277 -25 -489
-32 -132 -32 -242 0 -383 52 -228 52 -283 6 -499 -27 -126 -26 -247 5 -412 32
-174 32 -274 -1 -438 -37 -184 -32 -255 32 -443 l49 -145 -2 -130 c0 -91 -8
-170 -25 -262 l-25 -133 45 -154 c25 -85 49 -153 52 -151 4 3 10 42 14 87 46
536 47 658 10 885 -30 182 -29 289 5 461 27 133 27 262 0 394 -11 57 -23 153
-26 213 -5 95 -2 130 22 250 36 184 35 263 -4 442 -41 187 -41 264 1 436 49
204 42 344 -32 707 -47 229 -42 225 -79 50z"/>
<path d="M3046 12229 c-3 -8 -16 -73 -30 -145 -20 -109 -23 -143 -16 -195 5
-35 12 -120 16 -189 5 -112 3 -138 -21 -255 -40 -193 -42 -273 -11 -430 39
-192 42 -259 16 -395 -34 -179 -36 -287 -9 -443 29 -168 29 -287 0 -442 -31
-159 -25 -240 25 -400 50 -160 56 -276 24 -494 l-22 -152 38 -144 c21 -79 40
-142 42 -140 11 11 33 312 38 530 6 215 4 254 -15 377 -26 173 -27 274 0 424
26 150 26 265 0 424 -27 161 -27 280 1 417 29 146 27 256 -6 418 -33 163 -33
253 -2 398 37 171 40 216 21 377 -15 136 -71 459 -80 469 -3 2 -7 -2 -9 -10z"/>
<path d="M4227 12060 c-3 -8 -18 -73 -33 -145 -26 -126 -26 -132 -14 -245 21
-182 17 -287 -16 -425 -39 -162 -39 -276 -1 -437 35 -150 35 -251 2 -418 -31
-158 -31 -214 0 -394 31 -178 31 -274 4 -402 -13 -60 -22 -138 -23 -199 -1
-94 2 -108 44 -230 l45 -130 -1 -155 c-1 -114 -6 -181 -22 -256 l-20 -101 42
-146 c23 -80 44 -148 47 -152 3 -3 9 30 13 72 43 493 46 644 16 820 -35 199
-36 259 -6 430 33 191 33 257 0 447 -30 173 -29 270 5 421 30 131 27 235 -10
407 -37 171 -36 253 6 423 25 100 27 122 22 245 -3 74 -15 189 -26 255 -33
185 -68 332 -74 315z"/>
<path d="M2175 6303 l8 -202 -29 2 c-42 3 -45 -32 -4 -55 29 -16 30 -20 30
-83 l0 -65 -44 0 c-39 0 -65 12 -188 86 -173 105 -207 121 -219 102 -5 -7 -9
-17 -9 -23 0 -5 59 -46 132 -90 l132 -80 -165 -6 -164 -6 -75 42 c-97 54 -107
57 -114 38 -4 -9 -5 -17 -4 -18 2 -1 26 -16 53 -34 l50 -31 -72 0 c-63 0 -72
-2 -78 -20 -3 -11 -4 -28 -1 -37 5 -16 19 -18 136 -15 l129 4 213 -129 213
-128 -66 -3 c-58 -2 -68 -6 -72 -23 -12 -44 -1 -49 109 -49 l104 0 0 -54 0
-53 -67 -7 c-112 -12 -402 -64 -500 -90 -121 -33 -217 -77 -238 -110 -13 -19
-16 -40 -13 -75 5 -48 -11 -89 -30 -77 -8 5 -22 -223 -22 -373 0 -62 1 -65 90
-206 l91 -143 -56 -156 c-30 -86 -80 -226 -110 -311 -30 -85 -80 -225 -110
-310 -30 -85 -79 -224 -109 -307 -30 -84 -91 -256 -136 -383 -45 -126 -108
-304 -140 -395 -32 -91 -106 -298 -164 -460 -57 -162 -129 -366 -160 -453 -31
-86 -81 -228 -112 -315 -31 -86 -103 -290 -160 -452 -132 -372 -221 -620 -229
-642 -8 -20 -9 -19 139 -73 55 -19 103 -32 107 -28 4 5 39 100 79 213 40 113
94 268 122 345 27 77 76 214 108 305 32 91 82 230 110 310 28 80 78 219 110
310 216 610 320 902 325 910 3 5 27 -6 53 -24 61 -43 87 -56 205 -100 255 -95
665 -174 1182 -226 327 -33 832 -60 1133 -60 l212 0 0 -740 0 -740 135 0 135
0 0 740 0 740 48 0 c77 0 606 29 742 40 625 51 1114 137 1407 246 119 44 144
57 207 101 26 19 52 31 56 26 4 -4 39 -98 78 -208 66 -187 160 -451 288 -812
30 -84 78 -222 108 -305 30 -84 91 -256 136 -383 45 -126 116 -327 157 -445
42 -118 79 -218 82 -222 5 -5 235 73 246 84 3 2 -36 119 -86 259 -50 139 -95
265 -99 279 -4 14 -54 153 -110 310 -56 157 -128 359 -160 450 -32 91 -82 230
-110 310 -28 80 -78 219 -110 310 -32 91 -82 230 -110 310 -28 80 -78 219
-110 310 -32 91 -118 332 -190 535 -72 204 -158 444 -190 535 -32 91 -81 228
-108 306 l-50 140 164 175 164 174 -5 40 c-11 75 -20 610 -20 1199 l0 589 -25
18 c-41 30 -204 67 -365 83 -427 43 -1004 56 -2678 59 l-1349 2 7 -202z m493
-53 c18 -11 40 -37 48 -57 13 -31 14 -41 2 -71 -23 -62 -35 -62 -149 3 -57 32
-105 59 -107 61 -2 1 2 12 8 24 31 57 135 78 198 40z m-532 -446 l44 -26 0
-104 c0 -57 -3 -104 -6 -104 -7 0 -371 217 -393 234 -11 8 20 12 120 16 74 3
147 7 162 8 16 1 48 -10 73 -24z m44 -453 c0 -5 10 -11 23 -13 12 -2 -39 -14
-113 -26 -74 -13 -172 -32 -218 -43 -73 -17 -341 -43 -350 -35 -11 12 253 69
465 101 185 27 193 28 193 16z m-490 -125 c0 -2 -30 -13 -67 -26 -85 -28 -171
-71 -210 -104 l-31 -26 -5 33 c-10 64 36 98 154 115 67 10 159 15 159 8z m11
-1232 c26 -31 134 -98 243 -149 312 -148 794 -255 1366 -304 104 -9 500 -31
563 -31 16 0 17 -18 17 -230 l0 -230 -212 0 c-302 0 -780 -25 -1138 -60 -511
-49 -979 -143 -1236 -249 -74 -30 -94 -35 -89 -23 8 19 76 211 165 462 32 91
79 224 105 295 25 72 78 221 117 333 40 111 75 202 79 202 3 0 13 -7 20 -16z
m4402 -124 c9 -25 61 -173 117 -330 56 -157 112 -316 126 -355 14 -38 58 -162
98 -275 40 -113 72 -206 71 -207 0 -1 -44 16 -97 37 -299 123 -793 215 -1463
270 -130 11 -670 40 -747 40 l-48 0 0 234 0 233 178 7 c168 7 236 12 467 37
314 34 673 110 914 194 115 40 267 111 321 149 19 13 38 21 42 18 3 -4 13 -27
21 -52z m-2213 -1352 l0 -481 -347 6 c-434 8 -724 27 -1101 73 -478 58 -809
134 -1019 235 -175 84 -216 172 -122 261 180 172 864 314 1769 368 242 14 290
16 578 18 l242 2 0 -482z m770 461 c905 -55 1579 -196 1759 -367 94 -89 53
-177 -122 -261 -335 -161 -1051 -272 -1964 -307 l-173 -6 0 482 0 482 168 -6
c92 -4 241 -11 332 -17z"/>
</g>
</svg>
