<?xml version="1.0" standalone="no"?>
<!DOCTYPE svg PUBLIC "-//W3C//DTD SVG 20010904//EN"
 "http://www.w3.org/TR/2001/REC-SVG-20010904/DTD/svg10.dtd">
<svg version="1.0" xmlns="http://www.w3.org/2000/svg"
 width="270.000000pt" height="187.000000pt" viewBox="0 0 270.000000 187.000000"
 preserveAspectRatio="xMidYMid meet">
<metadata>
Created by potrace 1.15, written by Peter Selinger 2001-2017
</metadata>
<g transform="translate(0.000000,187.000000) scale(0.100000,-0.100000)"
fill="#000000" stroke="none">
<path d="M1211 1845 c-365 -82 -636 -338 -733 -690 -32 -116 -32 -374 0 -490
62 -226 207 -426 400 -552 69 -46 192 -107 199 -99 1 1 -2 19 -8 39 -13 49 3
108 42 146 l30 30 -23 31 c-12 17 -47 44 -78 61 -30 18 -89 66 -131 109 -163
164 -231 398 -184 625 22 106 92 239 170 323 327 353 900 269 1110 -163 111
-229 96 -481 -41 -686 l-53 -79 30 0 c72 0 139 -56 160 -132 l11 -42 19 24
c126 159 197 342 212 548 4 47 2 52 -17 52 -12 0 -39 10 -61 23 -70 39 -99
124 -69 201 5 12 0 16 -20 16 -31 0 -89 49 -106 90 -17 40 -8 111 18 148 12
16 38 37 57 46 l36 17 -23 32 c-39 57 -151 168 -213 212 -83 59 -189 110 -292
141 -73 22 -112 27 -233 30 -102 3 -164 -1 -209 -11z"/>
<path d="M4 1547 c-3 -14 -4 -122 -2 -240 3 -210 4 -216 26 -240 13 -14 35
-28 48 -31 l23 -6 3 -405 c2 -260 7 -408 13 -414 6 -6 25 -13 42 -17 26 -5 37
-1 57 19 l26 26 0 395 0 396 25 6 c14 3 34 18 45 31 19 24 20 41 20 264 0 232
-1 239 -20 239 -19 0 -20 -7 -20 -170 l0 -170 -50 0 -50 0 -2 167 c-3 151 -5
168 -20 171 -17 3 -18 -10 -18 -162 l0 -166 -50 0 -50 0 -2 162 c-3 144 -5
163 -20 166 -11 2 -19 -5 -24 -21z"/>
<path d="M2531 1554 c-48 -34 -51 -57 -51 -449 l0 -365 40 0 40 0 0 -255 c0
-246 1 -256 21 -276 17 -17 29 -20 57 -15 19 3 40 10 46 16 12 12 22 1181 11
1259 -13 85 -99 130 -164 85z"/>
<path d="M1245 1514 c-211 -53 -386 -223 -451 -439 -29 -96 -25 -259 10 -358
44 -128 130 -246 233 -318 51 -35 53 -35 53 -4 0 33 62 101 106 115 20 7 49
10 65 8 24 -4 29 -1 29 15 0 33 42 97 79 119 69 43 173 20 212 -47 l20 -33 26
24 c68 63 185 46 235 -34 l21 -34 19 29 c91 135 130 327 97 485 -15 73 -78
203 -128 265 -59 73 -162 148 -256 185 -70 27 -94 32 -195 34 -79 3 -134 -1
-175 -12z"/>
</g>
</svg>
