<?xml version="1.0" standalone="no"?>
<!DOCTYPE svg PUBLIC "-//W3C//DTD SVG 20010904//EN"
 "http://www.w3.org/TR/2001/REC-SVG-20010904/DTD/svg10.dtd">
<svg version="1.0" xmlns="http://www.w3.org/2000/svg"
 width="640.000000pt" height="640.000000pt" viewBox="0 0 640.000000 640.000000"
 preserveAspectRatio="xMidYMid meet">
<metadata>
Created by potrace 1.15, written by Peter Selinger 2001-2017
</metadata>
<g transform="translate(0.000000,640.000000) scale(0.100000,-0.100000)"
fill="#000000" stroke="none">
<path d="M2335 5070 c-33 -4 -94 -17 -135 -29 -41 -12 -81 -23 -88 -25 -7 -1
-18 -8 -24 -14 -7 -7 -25 -12 -40 -12 -15 0 -37 -9 -48 -20 -11 -11 -29 -20
-40 -20 -11 0 -20 -4 -20 -8 0 -4 -15 -16 -32 -27 -47 -27 -178 -160 -178
-179 0 -9 -3 -16 -8 -16 -7 0 -46 -66 -48 -79 0 -3 -14 -35 -31 -71 -17 -36
-34 -76 -37 -90 -4 -14 -11 -34 -16 -45 -15 -34 -39 -191 -33 -213 3 -12 2
-30 -2 -39 -10 -24 -12 -132 -4 -165 4 -15 10 -55 14 -89 4 -34 11 -70 15 -78
4 -9 13 -40 20 -69 7 -29 19 -66 27 -82 7 -16 16 -39 18 -52 5 -22 18 -62 35
-103 5 -11 18 -42 30 -70 11 -27 25 -57 30 -65 5 -8 21 -38 35 -67 14 -28 30
-55 35 -58 6 -3 10 -15 10 -26 0 -10 5 -19 10 -19 6 0 10 -9 10 -20 0 -11 7
-20 15 -20 8 0 15 -8 15 -18 0 -10 5 -23 11 -29 14 -14 36 -52 45 -75 3 -10
11 -18 16 -18 5 0 7 -4 3 -9 -3 -6 4 -15 15 -21 12 -6 19 -18 16 -25 -2 -7 1
-19 9 -25 7 -6 19 -31 26 -55 7 -25 16 -45 20 -45 7 0 22 -40 20 -54 -1 -5 7
-28 19 -53 11 -24 22 -65 25 -91 2 -27 11 -64 19 -84 15 -34 32 -100 41 -157
2 -14 8 -44 12 -66 10 -54 9 -235 -1 -370 -13 -150 -11 -282 4 -300 6 -8 9
-18 6 -24 -14 -22 36 -119 91 -179 31 -34 61 -62 67 -62 6 0 23 -6 37 -14 14
-7 52 -21 85 -31 32 -9 66 -20 74 -23 15 -6 23 -7 75 -16 17 -2 30 -6 30 -7 0
-2 37 -7 95 -12 25 -2 52 -7 60 -10 48 -18 426 -27 500 -13 19 4 46 8 60 8 14
0 30 4 36 9 6 5 18 7 26 4 7 -3 45 -1 83 5 39 6 81 13 94 15 46 7 166 48 183
63 9 7 21 11 27 8 13 -8 102 38 126 64 10 11 24 20 31 20 7 0 25 12 39 26 14
14 32 23 40 21 20 -8 43 33 50 89 5 34 1 75 -14 134 -33 140 -43 218 -43 360
0 129 1 142 42 285 23 83 51 186 61 230 19 78 35 121 64 178 17 33 19 51 5 42
-6 -3 -10 -1 -10 4 0 6 6 11 14 11 15 0 68 139 137 360 23 74 52 169 65 210
13 41 24 80 24 87 0 7 4 21 9 31 13 24 75 208 107 317 23 78 27 114 31 265 4
151 2 191 -17 289 -12 62 -27 123 -35 135 -7 11 -18 46 -25 76 -17 77 -38 121
-97 197 -85 108 -158 167 -229 183 -27 7 -61 16 -76 22 -18 6 -56 6 -118 -1
-96 -12 -162 -33 -195 -62 -36 -31 -89 -55 -131 -58 -33 -2 -45 3 -65 24 -38
41 -150 94 -195 93 -22 -1 -49 2 -61 6 -15 5 -23 3 -23 -4 0 -8 -6 -8 -21 0
-15 8 -39 8 -92 0 -40 -7 -85 -14 -101 -16 -16 -2 -35 -9 -41 -14 -7 -6 -17
-10 -21 -9 -10 2 -30 -5 -82 -28 -19 -8 -36 -12 -39 -9 -4 3 -12 1 -19 -5 -8
-7 -14 -7 -19 1 -3 5 -15 10 -26 10 -11 0 -43 12 -71 27 -28 15 -67 27 -85 27
-18 0 -33 4 -33 9 0 4 -8 7 -17 6 -10 -2 -27 2 -38 7 -12 6 -54 8 -103 5 -46
-3 -86 -3 -89 2 -2 4 -7 6 -11 5 -4 0 -34 -4 -67 -8z m155 -105 c41 2 80 -1
85 -5 6 -5 46 -13 89 -19 44 -6 85 -16 93 -22 15 -13 18 -49 3 -49 -16 0 -60
-50 -66 -77 -4 -13 -9 -23 -13 -23 -4 0 -18 -24 -31 -52 -13 -29 -31 -71 -41
-93 -28 -63 -51 -137 -55 -180 -3 -22 -7 -47 -10 -55 -9 -25 -11 -243 -2 -270
4 -14 9 -54 11 -90 2 -36 10 -81 19 -100 57 -129 72 -155 102 -186 28 -28 39
-34 60 -28 22 5 66 50 66 67 0 3 -10 7 -23 11 -28 7 -67 73 -67 114 0 17 -4
33 -9 36 -15 10 -35 180 -34 292 1 140 65 424 94 424 5 0 9 8 9 18 0 44 103
160 172 191 60 28 129 51 153 51 11 0 30 7 42 15 25 18 178 31 188 16 3 -6 18
-8 33 -5 39 7 142 -38 167 -73 11 -15 26 -32 33 -36 6 -4 12 -12 12 -18 0 -5
9 -19 20 -31 11 -12 20 -29 20 -37 0 -17 43 -127 54 -138 3 -3 6 -16 6 -28 0
-12 3 -25 7 -28 7 -8 11 -65 12 -182 0 -99 -2 -127 -12 -142 -5 -7 -5 -18 -2
-23 4 -6 2 -16 -3 -23 -6 -7 -12 -33 -14 -59 -2 -26 -7 -51 -11 -54 -4 -4 -7
-16 -7 -26 0 -10 -6 -21 -12 -23 -7 -3 -14 -23 -14 -44 -1 -24 -12 -54 -28
-77 -14 -21 -26 -44 -26 -50 0 -7 -7 -25 -15 -40 -21 -41 -19 -51 16 -63 64
-22 74 -17 110 57 18 37 42 95 55 130 12 35 24 66 28 69 3 4 6 18 6 33 0 14 4
30 10 36 5 5 12 25 15 44 3 19 7 46 10 60 17 90 22 223 13 322 -9 92 -17 128
-30 128 -5 0 -6 5 -3 11 4 5 2 22 -4 37 -6 15 -16 41 -22 57 -19 49 -11 86 29
128 86 88 185 112 324 75 49 -13 85 -29 100 -44 13 -13 34 -34 47 -47 53 -49
81 -82 81 -93 0 -6 6 -17 14 -23 7 -6 16 -25 19 -40 4 -16 15 -49 25 -73 43
-97 63 -208 67 -373 2 -65 -1 -140 -6 -165 -6 -25 -11 -56 -13 -70 -3 -31 -13
-73 -33 -126 -8 -22 -13 -44 -12 -50 2 -5 -6 -27 -16 -49 -10 -22 -17 -44 -16
-48 1 -5 -6 -25 -15 -45 -30 -70 -33 -77 -39 -117 -3 -22 -14 -58 -25 -79 -10
-22 -16 -46 -13 -53 3 -7 1 -19 -5 -26 -5 -6 -20 -46 -32 -87 -12 -41 -27 -80
-32 -87 -5 -7 -7 -16 -4 -21 3 -5 -2 -21 -10 -36 -7 -16 -14 -35 -14 -43 0 -8
-11 -38 -23 -66 -21 -45 -39 -97 -41 -119 -1 -4 -16 -21 -34 -39 -34 -33 -72
-100 -72 -128 -1 -22 -24 -51 -56 -67 -68 -36 -90 -1 -62 100 10 38 24 78 31
90 6 12 12 24 13 29 1 4 3 9 4 12 1 3 3 8 4 13 1 4 14 48 29 97 16 50 35 115
44 145 9 30 22 69 30 87 7 17 13 45 13 62 0 25 -5 32 -26 37 -20 5 -31 1 -50
-19 -13 -14 -24 -31 -24 -37 0 -6 -4 -18 -9 -28 -9 -16 -25 -68 -52 -177 -7
-27 -12 -60 -11 -72 1 -13 -3 -23 -8 -23 -6 0 -10 -6 -10 -13 0 -7 -9 -32 -20
-55 -11 -22 -20 -48 -20 -57 0 -8 -4 -15 -9 -15 -5 0 -13 -9 -16 -21 -4 -11
-19 -33 -34 -48 -15 -16 -31 -36 -34 -45 -7 -18 -38 -21 -53 -6 -5 5 -28 11
-50 13 -23 2 -46 7 -53 11 -6 4 -15 5 -19 2 -13 -8 -27 6 -46 44 -26 50 -28
189 -5 320 15 91 16 108 4 127 -15 23 -45 22 -66 -3 -10 -12 -26 -62 -34 -109
-2 -11 -4 -20 -5 -20 -5 0 -11 -49 -14 -110 -4 -84 -22 -148 -48 -172 -21 -19
-124 -27 -145 -11 -6 5 -14 5 -17 0 -5 -8 -79 -6 -103 3 -7 2 -13 0 -13 -5 0
-15 -86 -12 -97 3 -6 6 -13 37 -16 67 -13 122 -38 257 -53 295 -52 125 -84
169 -107 146 -10 -10 0 -105 26 -237 18 -89 15 -240 -4 -274 -9 -15 -24 -26
-39 -26 -46 -3 -155 -15 -170 -19 -8 -2 -23 2 -32 9 -24 17 -60 100 -52 119 3
8 1 18 -5 22 -6 3 -11 16 -11 28 -1 39 -67 191 -86 198 -56 22 -71 -8 -44 -86
11 -32 22 -72 24 -89 2 -17 9 -60 15 -96 10 -54 10 -71 -3 -101 -18 -44 -32
-55 -73 -61 -26 -4 -33 0 -43 21 -20 43 -57 161 -83 261 -27 102 -36 130 -87
257 -22 55 -46 95 -73 122 -43 44 -53 47 -80 27 -14 -11 -16 -19 -7 -40 5 -14
15 -26 21 -26 7 0 9 -3 6 -6 -4 -4 4 -21 16 -38 12 -17 23 -44 25 -61 2 -16 9
-37 16 -45 7 -8 21 -44 30 -80 10 -36 22 -74 26 -85 5 -11 14 -38 21 -60 6
-22 16 -48 21 -59 14 -27 27 -116 17 -116 -5 0 -9 6 -9 14 0 7 -7 27 -15 42
-8 16 -15 36 -15 44 0 8 -9 26 -20 40 -11 14 -20 32 -20 40 0 14 -56 112 -112
198 -10 15 -21 34 -24 42 -4 8 -17 29 -29 45 -12 17 -25 37 -28 45 -4 8 -18
33 -32 55 -14 22 -34 60 -45 85 -12 25 -24 52 -29 60 -5 9 -12 31 -16 50 -4
19 -11 40 -15 45 -9 13 -43 144 -43 165 0 8 -6 49 -14 90 -32 172 -35 351 -7
454 9 34 20 77 24 96 10 48 64 160 95 196 14 16 25 32 25 36 0 13 93 108 106
108 7 0 18 9 24 20 6 11 22 23 35 26 14 3 25 10 25 15 0 9 38 28 51 25 4 0 15
6 25 15 11 9 30 19 44 22 14 4 57 15 95 26 39 11 89 20 112 20 23 1 45 6 49
12 4 7 9 8 13 1 3 -5 40 -8 81 -7z m766 -2210 c21 1 45 -3 53 -9 7 -6 29 -9
48 -7 19 1 40 -3 48 -9 8 -6 23 -9 34 -5 10 3 22 2 25 -3 5 -9 18 -11 86 -15
17 -1 30 -5 30 -8 0 -4 12 -9 28 -12 15 -3 60 -14 100 -26 40 -12 85 -22 100
-23 15 -1 43 -12 62 -25 19 -13 40 -23 46 -23 6 0 19 -17 28 -39 16 -34 16
-46 6 -97 -7 -33 -13 -66 -13 -74 0 -8 -5 -21 -10 -28 -6 -8 -13 -57 -15 -110
-2 -54 -4 -122 -6 -152 -1 -30 0 -59 2 -64 3 -5 7 -26 8 -45 3 -40 12 -106 14
-106 0 0 3 -19 5 -42 2 -24 0 -43 -3 -43 -27 1 -182 32 -204 41 -15 6 -34 9
-42 6 -8 -3 -17 -3 -20 0 -9 10 -66 16 -123 16 -29 -1 -53 2 -53 7 0 4 -41 8
-92 9 -50 0 -93 3 -96 6 -3 3 -11 0 -19 -6 -7 -7 -13 -7 -13 -2 0 11 -119 11
-137 0 -6 -4 -13 -2 -15 5 -3 7 -9 8 -17 3 -11 -6 -128 -16 -203 -16 -10 0
-21 -5 -24 -11 -4 -7 -9 -7 -13 0 -4 7 -27 6 -71 -3 -35 -7 -68 -11 -72 -9 -4
3 -19 -3 -33 -12 -13 -9 -42 -17 -62 -19 -38 -3 -106 -25 -119 -38 -4 -4 -18
-7 -31 -7 -13 0 -26 -7 -29 -15 -4 -8 -14 -15 -23 -15 -21 0 -111 -58 -111
-71 0 -16 -15 -10 -28 11 -11 18 -18 60 -26 146 -2 18 3 72 10 120 21 140 19
453 -3 487 -12 18 -32 98 -33 127 0 14 7 36 16 48 16 24 110 72 138 72 9 0 16
4 16 9 0 5 8 7 19 4 10 -3 22 0 25 6 4 5 14 7 22 4 9 -3 20 0 26 8 7 10 11 11
14 2 4 -8 11 -9 22 -4 21 11 154 30 245 36 38 2 71 6 73 8 3 2 21 2 40 0 20
-2 43 2 51 9 11 9 16 9 23 -2 7 -11 11 -11 24 -1 8 7 19 11 23 8 4 -3 37 -2
73 2 36 3 81 4 101 0 20 -3 53 -5 75 -4z m131 -1016 c103 1 246 -8 303 -19 30
-5 74 -12 98 -14 24 -3 50 -10 57 -16 8 -7 19 -9 24 -5 6 3 22 -1 35 -10 14
-9 30 -14 36 -10 14 9 12 -11 -3 -27 -7 -7 -16 -21 -20 -30 -3 -10 -11 -18
-17 -18 -6 0 -31 -13 -55 -30 -24 -16 -50 -30 -57 -30 -8 0 -31 -9 -52 -20
-22 -10 -43 -17 -48 -14 -5 3 -14 1 -21 -4 -12 -11 -103 -31 -172 -39 -22 -3
-45 -9 -51 -14 -6 -5 -19 -7 -28 -3 -9 4 -16 1 -16 -6 0 -9 -3 -10 -13 -1 -10
7 -30 8 -73 0 -32 -6 -77 -12 -99 -13 -22 -1 -46 -6 -53 -10 -7 -4 -19 -3 -26
3 -8 7 -43 8 -94 5 -55 -4 -82 -2 -82 5 0 7 -22 11 -54 11 -81 0 -194 29 -263
67 -35 19 -65 38 -68 43 -3 4 5 31 16 59 17 40 31 56 67 76 24 14 54 25 67 25
12 0 25 3 28 6 8 8 60 14 150 17 37 1 67 5 67 8 0 4 10 7 23 7 56 -1 301 13
305 17 3 3 11 0 18 -6 7 -5 39 -10 71 -10z"/>
<path d="M2314 4805 c-40 -20 -104 -83 -104 -103 0 -5 -7 -12 -15 -16 -8 -3
-15 -12 -15 -20 0 -8 -3 -16 -8 -18 -7 -3 -35 -69 -72 -166 -22 -57 -14 -262
10 -286 5 -5 10 -18 10 -27 0 -9 16 -29 36 -44 49 -37 57 -23 48 85 -3 47 -6
96 -5 110 2 42 32 170 42 176 5 3 9 14 9 26 0 21 24 70 50 102 8 10 14 21 12
25 -5 12 47 57 87 76 45 20 49 33 25 74 -20 34 -51 35 -110 6z"/>
<path d="M3945 4756 c-18 -13 -18 -16 20 -62 44 -53 65 -89 65 -110 0 -8 4
-14 10 -14 10 0 24 -62 22 -95 0 -11 4 -22 10 -26 6 -4 12 -29 13 -55 2 -27 8
-80 14 -119 14 -94 14 -158 -1 -174 -11 -10 -9 -15 7 -27 28 -20 54 -14 79 19
18 25 21 43 22 150 2 120 -23 296 -50 357 -25 59 -97 140 -139 158 -36 15 -49
15 -72 -2z"/>
</g>
</svg>
